<mxfile host="Electron" agent="Mozilla/5.0 (Windows NT 10.0; Win64; x64) AppleWebKit/537.36 (KHTML, like Gecko) draw.io/26.2.2 Chrome/134.0.6998.178 Electron/35.1.2 Safari/537.36" version="26.2.2">
  <diagram name="Page-1" id="aDXQgREj_hXWIL7XdMfU">
    <mxGraphModel dx="788" dy="524" grid="1" gridSize="10" guides="1" tooltips="1" connect="1" arrows="1" fold="1" page="1" pageScale="1" pageWidth="850" pageHeight="1100" background="#ffffff" math="0" shadow="0">
      <root>
        <mxCell id="0" />
        <mxCell id="1" parent="0" />
        <mxCell id="ek56_0RN2-Bh0p7BwDvf-1" value="Job Seeker" style="text;html=1;align=center;verticalAlign=middle;whiteSpace=wrap;rounded=0;" vertex="1" parent="1">
          <mxGeometry x="370" y="20" width="70" height="30" as="geometry" />
        </mxCell>
        <mxCell id="ek56_0RN2-Bh0p7BwDvf-16" value="" style="endArrow=classic;html=1;rounded=0;exitX=0.5;exitY=1;exitDx=0;exitDy=0;" edge="1" parent="1" source="ek56_0RN2-Bh0p7BwDvf-19">
          <mxGeometry width="50" height="50" relative="1" as="geometry">
            <mxPoint x="399.5" y="90.00000000000004" as="sourcePoint" />
            <mxPoint x="400" y="110" as="targetPoint" />
          </mxGeometry>
        </mxCell>
        <mxCell id="ek56_0RN2-Bh0p7BwDvf-21" style="edgeStyle=orthogonalEdgeStyle;rounded=0;orthogonalLoop=1;jettySize=auto;html=1;exitX=0.5;exitY=1;exitDx=0;exitDy=0;" edge="1" parent="1" source="ek56_0RN2-Bh0p7BwDvf-17">
          <mxGeometry relative="1" as="geometry">
            <mxPoint x="400" y="170" as="targetPoint" />
          </mxGeometry>
        </mxCell>
        <mxCell id="ek56_0RN2-Bh0p7BwDvf-17" value="Create/Update Profile" style="rounded=1;whiteSpace=wrap;html=1;" vertex="1" parent="1">
          <mxGeometry x="355" y="110" width="90" height="40" as="geometry" />
        </mxCell>
        <mxCell id="ek56_0RN2-Bh0p7BwDvf-19" value="" style="ellipse;whiteSpace=wrap;html=1;aspect=fixed;strokeColor=default;fillColor=#000000;" vertex="1" parent="1">
          <mxGeometry x="380" y="50" width="40" height="40" as="geometry" />
        </mxCell>
        <mxCell id="ek56_0RN2-Bh0p7BwDvf-23" style="edgeStyle=orthogonalEdgeStyle;rounded=0;orthogonalLoop=1;jettySize=auto;html=1;exitX=0.5;exitY=1;exitDx=0;exitDy=0;" edge="1" parent="1" source="ek56_0RN2-Bh0p7BwDvf-22">
          <mxGeometry relative="1" as="geometry">
            <mxPoint x="400" y="230" as="targetPoint" />
          </mxGeometry>
        </mxCell>
        <mxCell id="ek56_0RN2-Bh0p7BwDvf-22" value="Search for jobs" style="rounded=1;whiteSpace=wrap;html=1;" vertex="1" parent="1">
          <mxGeometry x="355" y="170" width="90" height="40" as="geometry" />
        </mxCell>
        <mxCell id="ek56_0RN2-Bh0p7BwDvf-25" style="edgeStyle=orthogonalEdgeStyle;rounded=0;orthogonalLoop=1;jettySize=auto;html=1;exitX=0.5;exitY=1;exitDx=0;exitDy=0;" edge="1" parent="1" source="ek56_0RN2-Bh0p7BwDvf-24">
          <mxGeometry relative="1" as="geometry">
            <mxPoint x="400" y="290" as="targetPoint" />
          </mxGeometry>
        </mxCell>
        <mxCell id="ek56_0RN2-Bh0p7BwDvf-24" value="Select Job" style="rounded=1;whiteSpace=wrap;html=1;" vertex="1" parent="1">
          <mxGeometry x="355" y="230" width="90" height="40" as="geometry" />
        </mxCell>
        <mxCell id="ek56_0RN2-Bh0p7BwDvf-27" style="edgeStyle=orthogonalEdgeStyle;rounded=0;orthogonalLoop=1;jettySize=auto;html=1;exitX=0.5;exitY=1;exitDx=0;exitDy=0;" edge="1" parent="1" source="ek56_0RN2-Bh0p7BwDvf-26">
          <mxGeometry relative="1" as="geometry">
            <mxPoint x="398" y="350" as="targetPoint" />
          </mxGeometry>
        </mxCell>
        <mxCell id="ek56_0RN2-Bh0p7BwDvf-26" value="Apply for Job" style="rounded=1;whiteSpace=wrap;html=1;" vertex="1" parent="1">
          <mxGeometry x="350" y="290" width="95" height="40" as="geometry" />
        </mxCell>
        <mxCell id="ek56_0RN2-Bh0p7BwDvf-32" style="edgeStyle=orthogonalEdgeStyle;rounded=0;orthogonalLoop=1;jettySize=auto;html=1;exitX=0;exitY=0.5;exitDx=0;exitDy=0;entryX=0;entryY=0.5;entryDx=0;entryDy=0;" edge="1" parent="1" source="ek56_0RN2-Bh0p7BwDvf-29" target="ek56_0RN2-Bh0p7BwDvf-22">
          <mxGeometry relative="1" as="geometry">
            <Array as="points">
              <mxPoint x="260" y="375" />
              <mxPoint x="260" y="190" />
            </Array>
          </mxGeometry>
        </mxCell>
        <mxCell id="ek56_0RN2-Bh0p7BwDvf-35" style="edgeStyle=orthogonalEdgeStyle;rounded=0;orthogonalLoop=1;jettySize=auto;html=1;exitX=0.5;exitY=1;exitDx=0;exitDy=0;" edge="1" parent="1" source="ek56_0RN2-Bh0p7BwDvf-29">
          <mxGeometry relative="1" as="geometry">
            <mxPoint x="398" y="420" as="targetPoint" />
          </mxGeometry>
        </mxCell>
        <mxCell id="ek56_0RN2-Bh0p7BwDvf-29" value="" style="rhombus;whiteSpace=wrap;html=1;" vertex="1" parent="1">
          <mxGeometry x="367.5" y="350" width="60" height="50" as="geometry" />
        </mxCell>
        <mxCell id="ek56_0RN2-Bh0p7BwDvf-33" value="Not Available" style="text;html=1;align=center;verticalAlign=middle;whiteSpace=wrap;rounded=0;" vertex="1" parent="1">
          <mxGeometry x="270" y="270" width="60" height="30" as="geometry" />
        </mxCell>
        <mxCell id="ek56_0RN2-Bh0p7BwDvf-37" style="edgeStyle=orthogonalEdgeStyle;rounded=0;orthogonalLoop=1;jettySize=auto;html=1;exitX=0.5;exitY=1;exitDx=0;exitDy=0;" edge="1" parent="1" source="ek56_0RN2-Bh0p7BwDvf-36">
          <mxGeometry relative="1" as="geometry">
            <mxPoint x="398" y="480" as="targetPoint" />
          </mxGeometry>
        </mxCell>
        <mxCell id="ek56_0RN2-Bh0p7BwDvf-36" value="Track Application Status" style="rounded=1;whiteSpace=wrap;html=1;" vertex="1" parent="1">
          <mxGeometry x="350" y="420" width="95" height="40" as="geometry" />
        </mxCell>
        <mxCell id="ek56_0RN2-Bh0p7BwDvf-40" style="edgeStyle=orthogonalEdgeStyle;rounded=0;orthogonalLoop=1;jettySize=auto;html=1;exitX=0.5;exitY=1;exitDx=0;exitDy=0;" edge="1" parent="1" source="ek56_0RN2-Bh0p7BwDvf-38" target="ek56_0RN2-Bh0p7BwDvf-41">
          <mxGeometry relative="1" as="geometry">
            <mxPoint x="398" y="540" as="targetPoint" />
          </mxGeometry>
        </mxCell>
        <mxCell id="ek56_0RN2-Bh0p7BwDvf-38" value="Recieve Notificantion" style="rounded=1;whiteSpace=wrap;html=1;" vertex="1" parent="1">
          <mxGeometry x="343.75" y="480" width="107.5" height="40" as="geometry" />
        </mxCell>
        <mxCell id="ek56_0RN2-Bh0p7BwDvf-39" value="Available" style="text;html=1;align=center;verticalAlign=middle;whiteSpace=wrap;rounded=0;" vertex="1" parent="1">
          <mxGeometry x="420" y="340" width="50" height="20" as="geometry" />
        </mxCell>
        <mxCell id="ek56_0RN2-Bh0p7BwDvf-41" value="" style="points=[[0.145,0.145,0],[0.5,0,0],[0.855,0.145,0],[1,0.5,0],[0.855,0.855,0],[0.5,1,0],[0.145,0.855,0],[0,0.5,0]];shape=mxgraph.bpmn.event;html=1;verticalLabelPosition=bottom;labelBackgroundColor=#ffffff;verticalAlign=top;align=center;perimeter=ellipsePerimeter;outlineConnect=0;aspect=fixed;outline=end;symbol=terminate;" vertex="1" parent="1">
          <mxGeometry x="377.5" y="550" width="40" height="40" as="geometry" />
        </mxCell>
      </root>
    </mxGraphModel>
  </diagram>
</mxfile>
